<?xml version="1.0" encoding="iso-8859-1"?>
<!-- Generator: Adobe Illustrator 19.0.0, SVG Export Plug-In . SVG Version: 6.00 Build 0)  -->
<svg version="1.1" id="Layer_1" xmlns="http://www.w3.org/2000/svg" xmlns:xlink="http://www.w3.org/1999/xlink" x="0px" y="0px"
	 viewBox="0 0 512 512" style="enable-background:new 0 0 512 512;" xml:space="preserve">
<path style="fill:#FFF3E6;" d="M442.447,206.988c56.894,56.894,74.017,131.994,38.262,167.76
	c-24.676,24.676-68.079,24.166-111.312,2.783c-15.413-7.616-30.805-17.888-45.315-30.624c-3.771-3.304-7.489-6.788-11.122-10.421
	c-36.775-36.775-56.936-81.166-56.936-117.611c0-19.938,6.034-37.497,18.674-50.138c22.158-22.158,59.422-24.017,98.087-8.679
	C396.526,169.459,420.809,185.35,442.447,206.988z"/>
<g>
	<path style="fill:#F0C419;" d="M372.785,160.048v0.011c-38.666-15.339-75.929-13.48-98.087,8.679
		c-12.641,12.641-18.674,30.2-18.674,50.138c0-19.938-6.034-37.497-18.674-50.138c-22.158-22.158-59.422-24.017-98.087-8.679v-0.011
		c0.744-2.103,1.508-4.185,2.294-6.246c23.476-61.44,65.965-102.485,114.467-102.485s90.992,41.045,114.467,102.485
		C371.276,155.863,372.041,157.945,372.785,160.048z"/>
	<path style="fill:#F0C419;" d="M369.396,377.531c-2.252,5.694-4.674,11.207-7.234,16.518c-3.134,6.469-6.48,12.63-10.059,18.472
		h-192.17c-3.569-5.842-6.926-12.003-10.049-18.472c-2.571-5.311-4.982-10.814-7.234-16.507v-0.011
		c15.413-7.616,30.805-17.888,45.315-30.624h136.116C338.591,359.643,353.983,369.915,369.396,377.531z"/>
</g>
<g>
	<path style="fill:#666666;" d="M159.933,412.521h192.17c-24.315,39.908-58.37,64.701-96.08,64.701S184.258,452.43,159.933,412.521z
		"/>
	<path style="fill:#666666;" d="M324.081,346.907H187.965c3.771-3.304,7.489-6.788,11.122-10.421
		c36.775-36.775,56.936-81.166,56.936-117.611c0,36.445,20.161,80.837,56.936,117.611
		C316.592,340.119,320.31,343.603,324.081,346.907z"/>
</g>
<path style="fill:#FFF3E6;" d="M237.349,168.737c12.641,12.641,18.674,30.199,18.674,50.138c0,36.445-20.161,80.837-56.936,117.611
	c-3.633,3.633-7.351,7.117-11.122,10.421c-14.51,12.736-29.902,23.008-45.315,30.624c-43.233,21.383-86.636,21.893-111.312-2.783
	C-4.417,338.982,12.706,263.882,69.6,206.988c21.638-21.638,45.921-37.529,69.662-46.93
	C177.927,144.72,215.191,146.579,237.349,168.737z"/>
<path d="M434.935,199.477c-4.148,4.148-4.148,10.874,0,15.023c0.575,0.575,1.145,1.15,1.71,1.728
	c2.081,2.128,4.837,3.196,7.595,3.196c2.678,0,5.359-1.007,7.426-3.027c4.195-4.101,4.27-10.826,0.169-15.021
	c-0.62-0.635-1.247-1.267-1.878-1.899C445.81,195.328,439.083,195.328,434.935,199.477z"/>
<path d="M81.577,404.023c17.087,0,35.774-4.006,54.93-12.029c-21.946,21.748-33.934,48.811-33.934,77.039
	c0,5.867,4.756,10.622,10.622,10.622s10.622-4.756,10.622-10.622c0-20.569,8.191-40.547,23.302-57.386
	c1.225,2.169,2.467,4.316,3.742,6.404c7.567,12.415,15.892,23.282,24.824,32.525v50.802c0,5.867,4.756,10.622,10.622,10.622
	s10.622-4.756,10.622-10.622v-32.692c18.264,12.552,38.273,19.159,59.092,19.159c20.823,0,40.831-6.606,59.092-19.156v32.689
	c0,5.867,4.756,10.622,10.622,10.622s10.622-4.756,10.622-10.622v-50.804c8.813-9.123,17.032-19.833,24.514-32.047
	c0.221-0.322,0.425-0.655,0.61-1.002c1.164-1.913,2.307-3.883,3.438-5.885c15.114,16.841,23.307,36.82,23.307,57.391
	c0,5.867,4.756,10.622,10.622,10.622c5.867,0,10.622-4.756,10.622-10.622c0-28.228-11.989-55.291-33.935-77.039
	c19.158,8.024,37.842,12.03,54.931,12.03c23.096-0.001,43.279-7.292,57.751-21.764c17.588-17.593,24.887-44.06,20.554-74.524
	c-4.063-28.569-18.206-59.427-39.822-86.888c-3.629-4.609-10.307-5.405-14.917-1.777c-4.61,3.629-5.405,10.308-1.777,14.917
	c19.338,24.565,31.938,51.819,35.483,76.739c3.368,23.69-1.797,43.76-14.545,56.511c-20.544,20.546-58.515,20.842-99.095,0.771
	c-14.998-7.411-29.47-17.196-43.021-29.092c-3.578-3.134-7.147-6.479-10.61-9.942c-33.2-33.2-53.825-75.388-53.825-110.1
	c0-17.704,5.381-32.445,15.563-42.626c18.244-18.245,50.64-20.605,86.665-6.313c16.044,6.352,31.775,15.566,46.758,27.385
	c4.606,3.634,11.286,2.845,14.918-1.761c3.634-4.606,2.845-11.285-1.761-14.918c-13.834-10.912-28.31-19.838-43.14-26.628
	c22.167-22.845,34.255-50.938,34.255-80.155c0-5.867-4.756-10.622-10.622-10.622c-5.867,0-10.622,4.756-10.622,10.622
	c0,21.918-8.605,43.237-24.486,61.276c-11.708-25.705-26.863-47.449-44.366-63.454c-6.01-5.496-12.268-10.282-18.715-14.351
	c11.011-12.903,17.121-29.275,17.121-46.708C328.213,4.756,323.457,0,317.591,0c-5.867,0-10.622,4.756-10.622,10.622
	c0,14.07-5.637,27.166-15.644,36.737c-11.466-4.402-23.32-6.665-35.301-6.665c-11.979,0-23.833,2.263-35.298,6.663
	c-10.008-9.578-15.647-22.674-15.647-36.735C205.078,4.756,200.323,0,194.456,0s-10.622,4.756-10.622,10.622
	c0,17.426,6.111,33.797,17.121,46.706c-6.448,4.068-12.707,8.856-18.718,14.353c-17.501,16.004-32.655,37.748-44.364,63.454
	c-15.881-18.039-24.486-39.358-24.486-61.277c0-5.867-4.756-10.622-10.622-10.622c-5.867,0-10.622,4.756-10.622,10.622
	c0,29.218,12.089,57.313,34.259,80.158c-22.804,10.452-44.873,26.025-64.311,45.461c-28.911,28.912-49.054,63.344-56.719,96.952
	c-8.067,35.373-1.513,65.855,18.457,85.83C38.3,396.732,58.478,404.023,81.577,404.023z M191.912,357.529h128.223
	c11.367,9.645,23.332,17.977,35.703,24.869c-1.047,2.368-2.124,4.715-3.236,7.019c-2.093,4.321-4.296,8.489-6.571,12.481H166.009
	c-2.299-4.033-4.5-8.204-6.564-12.478c-1.108-2.289-2.187-4.638-3.241-7.019C168.58,375.506,180.548,367.173,191.912,357.529z
	 M180.067,423.144h151.908c-21.698,28.168-48.178,43.456-75.951,43.456C228.254,466.6,201.776,451.314,180.067,423.144z
	 M298.072,336.284h-84.098c18.706-20.411,33.081-43.078,42.049-65.791C264.991,293.206,279.366,315.873,298.072,336.284z
	 M256.023,61.939c38.395,0,75.201,30.73,98.447,81.184c-35.393-8.438-67.021-2.16-87.284,18.103
	c-4.36,4.36-8.084,9.257-11.163,14.62c-3.079-5.362-6.803-10.26-11.163-14.62c-20.262-20.262-51.892-26.54-87.284-18.103
	C180.823,92.668,217.63,61.939,256.023,61.939z M26.082,301.153c6.787-29.76,24.91-60.534,51.029-86.653
	c19.937-19.936,42.78-35.346,66.062-44.564c0.002-0.001,0.004-0.002,0.006-0.002c15.614-6.194,30.542-9.258,43.935-9.258
	c17.506,0,32.388,5.239,42.723,15.575c10.181,10.181,15.563,24.921,15.563,42.626c0,34.712-20.624,76.9-53.825,110.1
	c-3.463,3.464-7.033,6.809-10.617,9.949c-13.545,11.889-28.017,21.674-43.018,29.086c-40.578,20.068-78.547,19.771-99.091-0.772
	C24.233,352.616,19.698,329.146,26.082,301.153z"/>
<g>
</g>
<g>
</g>
<g>
</g>
<g>
</g>
<g>
</g>
<g>
</g>
<g>
</g>
<g>
</g>
<g>
</g>
<g>
</g>
<g>
</g>
<g>
</g>
<g>
</g>
<g>
</g>
<g>
</g>
</svg>
